<?xml version="1.0" encoding="UTF-8"?>
<svg width="46px" height="38px" viewBox="0 0 46 38" version="1.1" xmlns="http://www.w3.org/2000/svg" xmlns:xlink="http://www.w3.org/1999/xlink">
    <!-- Generator: Sketch 42 (36781) - http://www.bohemiancoding.com/sketch -->
    <title>flèche</title>
    <desc>Created with Sketch.</desc>
    <defs></defs>
    <g id="Page-1" stroke="none" stroke-width="1" fill="none" fill-rule="evenodd">
        <g id="Artboard-Copy-22" transform="translate(-437.000000, -1290.000000)" fill-rule="nonzero" fill="#FFFFFF">
            <g id="Valeur" transform="translate(0.000000, 750.000000)">
                <g id="Group" transform="translate(248.000000, 449.000000)">
                    <g id="Group-9" transform="translate(161.980952, 60.000000)">
                        <g id="flèche" transform="translate(27.257143, 31.000000)">
                            <path d="M3.04509575,29.8845735 L3.04509575,37.1091518 C3.04509575,37.5486699 3.40497071,37.9149349 3.85712129,37.9149349 L9.48593465,37.9149349 C9.92885767,37.9149349 10.2979602,37.5578265 10.2979602,37.1091518 L10.2979602,24.3997542 L6.21014983,28.4561398 C5.34275892,29.307706 4.23545137,29.8021639 3.04509575,29.8845735 Z" id="Shape"></path>
                            <path d="M13.1031393,24.308188 L13.1031393,37.1091518 C13.1031393,37.5486699 13.4630143,37.9149349 13.9151648,37.9149349 L19.5439782,37.9149349 C19.9869012,37.9149349 20.3560037,37.5578265 20.3560037,37.1091518 L20.3560037,29.5732482 C19.0733725,29.5457783 17.8737893,29.0421639 16.9694882,28.1448145 L13.1031393,24.308188 Z" id="Shape"></path>
                            <path d="M23.1611829,28.7766217 L23.1611829,37.1091518 C23.1611829,37.5486699 23.5210578,37.9149349 23.9732084,37.9149349 L29.6020218,37.9149349 C30.0449448,37.9149349 30.4140473,37.5578265 30.4140473,37.1091518 L30.4140473,21.7351759 L23.9639808,28.1356578 C23.7148366,28.3828867 23.4472373,28.5934892 23.1611829,28.7766217 Z" id="Shape"></path>
                            <path d="M39.9276646,12.2855373 L33.2192264,18.9424048 L33.2192264,37.1091518 C33.2192264,37.5486699 33.5791014,37.9149349 34.031252,37.9149349 L39.6600653,37.9149349 C40.1029883,37.9149349 40.4720909,37.5578265 40.4720909,37.1091518 L40.4720909,12.7891518 C40.2875396,12.6334892 40.1491262,12.4961398 40.047623,12.4045735 L39.9276646,12.2855373 Z" id="Shape"></path>
                            <path d="M44.5322185,0.49180241 C44.2646192,0.207946988 43.8586064,0.0614409639 43.3418629,0.0614409639 L43.1942219,0.0614409639 C40.573594,0.180477108 37.9621937,0.30866988 35.3415659,0.427706024 C34.9909185,0.446019277 34.5110852,0.46433253 34.1327551,0.839754217 C34.0127968,0.958790361 33.9205212,1.09613976 33.8467007,1.26095904 C33.4591431,2.09421205 34.0035693,2.63445301 34.261941,2.89083855 L34.917098,3.55011566 C35.3692486,4.00794699 35.8306267,4.46577831 36.2920049,4.91445301 L20.4575069,20.6363807 L13.3430559,13.5766217 C12.9185881,13.1554169 12.3464792,12.9173446 11.73746,12.9173446 C11.1284408,12.9173446 10.5655595,13.1554169 10.1410916,13.5766217 L0.664384528,22.9713205 C-0.221461509,23.8503566 -0.221461509,25.2696337 0.664384528,26.1486699 L1.08885242,26.5698747 C1.51332031,26.9910795 2.08542921,27.2291518 2.69444836,27.2291518 C3.30346752,27.2291518 3.86634885,26.9910795 4.29081675,26.5698747 L11.73746,19.1804771 L18.851911,26.2402361 C19.2763789,26.661441 19.8484878,26.8995133 20.4575069,26.8995133 C21.0665261,26.8995133 21.6294074,26.661441 22.0631029,26.2402361 L39.9276646,8.51300723 L41.9485009,10.5091518 C42.1884176,10.7472241 42.5206098,11.0768627 43.0281258,11.0768627 C43.2403597,11.0768627 43.4525937,11.0219229 43.6740552,10.9028867 C43.8216962,10.8204771 43.9508821,10.7289108 44.0616128,10.6190313 C44.458398,10.2252964 44.5322185,9.72168193 44.5506737,9.32794699 C44.6244942,7.64312771 44.7075422,5.95830843 44.7905903,4.26433253 L44.9105486,1.72794699 C44.9382313,1.19686265 44.818273,0.784814458 44.5322185,0.49180241 Z" id="Shape"></path>
                        </g>
                    </g>
                </g>
            </g>
        </g>
    </g>
</svg>