<?xml version="1.0" encoding="utf-8"?>
<!-- Generator: Adobe Illustrator 16.0.0, SVG Export Plug-In . SVG Version: 6.00 Build 0)  -->
<!DOCTYPE svg PUBLIC "-//W3C//DTD SVG 1.1//EN" "http://www.w3.org/Graphics/SVG/1.1/DTD/svg11.dtd">
<svg version="1.1" xmlns="http://www.w3.org/2000/svg" xmlns:xlink="http://www.w3.org/1999/xlink" x="0px" y="0px"
	 width="386.545px" height="234.825px" viewBox="0 0 386.545 234.825" enable-background="new 0 0 386.545 234.825"
	 xml:space="preserve">
<g id="Calque_1" display="none">
	<g display="inline">
		<path stroke="#000000" stroke-width="4" stroke-miterlimit="10" d="M-528,36.965c0-10.104,2.115-19.267,6.343-27.488
			c4.229-8.224,9.868-15.417,16.916-21.584c7.048-6.168,15.153-11.338,24.316-15.506c9.163-4.171,18.678-7.285,28.545-9.339
			c9.867-2.056,19.747-3.597,29.602-4.083c10.699-0.528,27.574-0.695,27.574-0.695c0.234-8.81,0.266-12.52,0.266-20.859
			s0.176-17.149,0.529-26.43c-3.172,5.286-7.255,9.691-12.246,13.215c-4.994,3.524-10.66,5.286-17.003,5.286
			c-3.172,0-5.903-0.586-8.193-1.762c-2.291-1.173-4.141-2.759-5.551-4.758c-1.41-1.996-2.439-4.344-3.083-7.048
			c-0.647-2.701-0.969-5.578-0.969-8.634c0-5.991,1.084-11.894,3.259-17.708c2.172-5.815,5.198-10.982,9.075-15.506
			c3.876-4.521,8.485-8.163,13.832-10.925c5.344-2.758,11.188-4.141,17.532-4.141c3.288,0,5.903,0.264,7.841,0.793
			c1.938,0.529,3.406,1.382,4.405,2.555c0.997,1.176,1.644,2.673,1.938,4.493c0.292,1.823,0.44,3.965,0.44,6.432
			c0,5.875-0.088,11.806-0.264,17.796s-0.413,12.571-0.705,19.735c-0.294,7.167-0.528,15.214-0.705,24.14s-0.251,11.8-0.251,23.429
			c1.057,0.586,146.104-0.062,147.771,1.542c0.614,0.896-0.357,5.29-2.378,6.665c-2.271,1.479-6.08,1.221-6.08,1.221
			c-26.018,0.125-138.359,0.655-139.084,0.448c0,9.277-1.034,28.336-2.972,37.44c-1.938,9.102-4.788,17.797-8.546,26.078
			c-3.761,8.281-8.342,15.946-13.744,22.994c-5.404,7.048-11.571,13.186-18.501,18.413c-6.932,5.226-14.567,9.309-22.906,12.246
			c-8.339,2.936-17.268,4.405-26.783,4.405c-7.634,0-14.537-1.498-20.704-4.493s-11.453-6.96-15.858-11.894
			c-4.405-4.934-7.78-10.572-10.131-16.915C-526.825,50.18-528,43.66-528,36.965z M-395.081-31.71c0,0-14.5,0.021-24.467,0.542
			c-8.981,0.469-18.091,1.322-27.311,3.026c-9.221,1.701-18.149,4.463-26.783,8.281c-8.634,3.816-16.299,8.574-22.995,14.272
			c-6.696,5.697-11.982,12.335-15.858,19.911c-3.876,7.577-5.638,15.946-5.286,25.109c0.237,6.695,1.559,12.538,3.965,17.532
			c2.409,4.991,5.435,9.132,9.074,12.422c3.643,3.287,7.607,5.784,11.894,7.488c4.289,1.702,8.488,2.613,12.598,2.731
			c9.047,0.353,17.417-0.854,25.109-3.612c7.695-2.762,14.713-6.638,21.056-11.629c6.343-4.994,11.921-10.955,16.739-17.885
			c4.815-6.933,8.868-14.333,12.158-22.201c3.287-7.872,5.784-16.065,7.488-24.581C-395.997-8.82-395.081-23.371-395.081-31.71z
			 M-431.618-90.782c0,2.704,0.732,5.286,2.203,7.753c1.467,2.467,3.67,3.7,6.607,3.7c3.406,0,6.52-0.909,9.339-2.731
			c2.819-1.82,5.374-4.199,7.665-7.136c2.291-2.935,4.317-6.255,6.079-9.956c1.762-3.7,3.229-7.489,4.405-11.365
			c1.173-3.876,2.054-7.604,2.643-11.188c0.586-3.582,0.881-6.784,0.881-9.603c-5.17-0.821-10.131-0.322-14.889,1.498
			c-4.757,1.823-8.986,4.581-12.687,8.281c-3.7,3.701-6.668,8.224-8.898,13.568C-430.502-102.615-431.618-96.889-431.618-90.782z"/>
		<path stroke="#000000" stroke-width="4" stroke-miterlimit="10" d="M-337.701-140.471c2.466,0,5.049,0.352,7.752,1.057
			c2.701,0.705,5.198,1.792,7.489,3.26c2.29,1.47,4.198,3.348,5.727,5.638c1.525,2.291,2.29,5.083,2.29,8.37
			c-0.118,3.761-0.969,6.902-2.555,9.427c-1.586,2.527-3.612,4.554-6.079,6.079c-2.467,1.528-5.229,2.643-8.281,3.348
			c-3.056,0.705-6.14,1.057-9.251,1.057c-3.114,0-6.051-0.292-8.81-0.881c-2.761-0.586-5.082-1.41-6.96-2.467
			c-0.118,3.29,0.204,6.462,0.969,9.515c0.763,3.056,1.996,5.727,3.7,8.017c1.702,2.291,3.876,4.113,6.52,5.462
			c2.643,1.352,5.727,2.026,9.251,2.026c1.525,0,3.287-0.292,5.286-0.881c1.996-0.586,4.021-1.292,6.078-2.115
			c2.055-0.82,4.022-1.731,5.903-2.731c1.878-0.997,3.464-1.908,4.758-2.731c0.586,1.88,0.616,3.672,0.088,5.374
			c-0.529,1.704-1.352,3.232-2.467,4.581c-1.118,1.352-2.467,2.555-4.053,3.612s-3.084,1.88-4.493,2.467
			c-2.233,0.941-4.466,1.646-6.696,2.114c-2.232,0.471-4.229,0.705-5.99,0.705c-2.938,0-6.14-0.556-9.603-1.674
			c-3.466-1.115-6.696-3.111-9.691-5.991c-2.996-2.877-5.493-6.753-7.489-11.629c-1.999-4.873-2.938-11.128-2.819-18.765
			c0.938-9.983,3.788-17.854,8.545-23.611C-353.824-137.591-346.864-140.471-337.701-140.471z M-355.498-115.098
			c2.23,0.823,4.934,1.47,8.105,1.938c3.172,0.471,6.313,0.559,9.426,0.265c3.111-0.292,5.903-1.146,8.37-2.555
			s4.053-3.64,4.758-6.696c0-1.644-0.44-3.023-1.321-4.141c-0.882-1.115-1.999-1.996-3.349-2.643
			c-1.352-0.644-2.85-1.115-4.493-1.41c-1.646-0.292-3.172-0.44-4.581-0.44c-4.113,0-7.637,1.586-10.572,4.757
			C-352.093-122.851-354.207-119.208-355.498-115.098z"/>
		<path stroke="#000000" stroke-width="4" stroke-miterlimit="10" d="M-304.752-97.478c-0.236-5.873,0.529-11.277,2.291-16.21
			s4.257-9.25,7.488-12.951c3.229-3.7,7.164-6.753,11.806-9.162c4.64-2.406,9.779-3.965,15.418-4.669
			c1.996-0.234,3.847-0.146,5.551,0.264c1.701,0.413,3.141,1.057,4.316,1.938c1.173,0.881,1.996,1.938,2.467,3.172
			c0.468,1.233,0.468,2.616,0,4.141c-5.286-0.352-10.308,0.119-15.065,1.41c-4.757,1.294-8.928,3.378-12.51,6.255
			c-3.585,2.88-6.344,6.52-8.282,10.924c-1.938,4.405-2.615,9.603-2.025,15.594c0.352,4.465,1.674,7.989,3.964,10.572
			c2.291,2.585,5.168,4.378,8.634,5.375c3.464,0.999,7.282,1.321,11.453,0.969c4.169-0.352,8.37-1.291,12.599-2.819
			c0.705,1.646,0.732,3.232,0.088,4.757c-0.646,1.528-1.646,2.88-2.995,4.053c-1.352,1.175-2.968,2.114-4.846,2.819
			c-1.88,0.705-3.7,1.057-5.462,1.057c-3.524,0-7.285-0.325-11.277-0.969c-3.994-0.644-7.726-1.966-11.188-3.964
			c-3.467-1.996-6.344-4.785-8.634-8.37C-303.254-86.875-304.518-91.603-304.752-97.478z"/>
		<path d="M-213.621-35.918c0,3.314-3.396,6-7.584,6c-1.937,0.042-6.921,0.336-8.208-0.459c-1.776-1.099,0.208-2.042,0.786-5.719
			c0.264-2.317,0.955-3.852,2.328-4.938c1.372-1.086,3-0.885,5.094-0.885C-217.017-41.918-213.621-39.232-213.621-35.918z"/>
	</g>
</g>
<g id="Calque_3" display="none">
	<rect x="-86.455" y="-185.252" display="inline" width="492" height="560"/>
</g>
<g id="Calque_2">
	<path fill="#FFFFFF" stroke="#FFFFFF" stroke-width="4" stroke-miterlimit="10" d="M2,179.965c0-10.104,2.114-19.267,6.343-27.488
		c4.229-8.224,9.868-15.417,16.915-21.584c7.049-6.168,15.154-11.338,24.316-15.506c9.162-4.172,18.678-7.285,28.545-9.34
		c9.867-2.056,19.747-3.596,29.602-4.083c10.699-0.528,27.574-0.694,27.574-0.694c0.234-8.811,0.266-12.52,0.266-20.859
		s0.177-17.149,0.529-26.43c-3.172,5.286-7.255,9.691-12.246,13.215c-4.994,3.524-10.66,5.286-17.004,5.286
		c-3.172,0-5.902-0.586-8.193-1.762c-2.291-1.173-4.141-2.759-5.551-4.758c-1.409-1.996-2.438-4.344-3.083-7.048
		c-0.647-2.701-0.969-5.578-0.969-8.634c0-5.991,1.085-11.894,3.259-17.708c2.173-5.815,5.199-10.982,9.075-15.506
		c3.876-4.521,8.485-8.163,13.832-10.925C120.554,3.382,126.398,2,132.742,2c3.287,0,5.902,0.264,7.841,0.793
		s3.405,1.382,4.405,2.555c0.996,1.176,1.644,2.673,1.938,4.493c0.293,1.823,0.441,3.965,0.441,6.432
		c0,5.875-0.088,11.806-0.265,17.796s-0.413,12.571-0.705,19.735c-0.294,7.167-0.528,15.214-0.704,24.14
		c-0.177,8.926-0.252,11.8-0.252,23.43c1.057,0.586,146.104-0.063,147.771,1.541c0.614,0.896-0.357,5.29-2.378,6.665
		c-2.271,1.479-6.08,1.221-6.08,1.221c-26.018,0.126-138.359,0.655-139.084,0.448c0,9.277-1.034,28.336-2.973,37.44
		c-1.938,9.102-4.787,17.797-8.546,26.078c-3.761,8.281-8.342,15.946-13.743,22.994c-5.404,7.048-11.572,13.186-18.502,18.413
		C94.975,221.399,87.34,225.482,79,228.42c-8.34,2.936-17.268,4.405-26.783,4.405c-7.634,0-14.536-1.498-20.703-4.493
		s-11.453-6.96-15.858-11.894s-7.78-10.572-10.132-16.915C3.176,193.18,2,186.66,2,179.965z M134.92,111.29
		c0,0-14.5,0.021-24.468,0.542c-8.981,0.469-18.091,1.321-27.312,3.025c-9.221,1.701-18.148,4.463-26.782,8.281
		c-8.634,3.816-16.299,8.574-22.995,14.272c-6.695,5.697-11.981,12.335-15.857,19.911c-3.877,7.577-5.639,15.946-5.287,25.109
		c0.237,6.695,1.559,12.538,3.965,17.532c2.41,4.991,5.436,9.132,9.074,12.422c3.643,3.287,7.607,5.784,11.895,7.488
		c4.289,1.702,8.488,2.613,12.598,2.731c9.047,0.353,17.417-0.854,25.109-3.612c7.695-2.762,14.713-6.638,21.057-11.629
		c6.343-4.994,11.921-10.955,16.738-17.885c4.816-6.933,8.869-14.333,12.158-22.201c3.287-7.872,5.785-16.065,7.488-24.581
		C134.003,134.18,134.92,119.629,134.92,111.29z M98.383,52.218c0,2.704,0.732,5.286,2.202,7.753c1.468,2.467,3.67,3.7,6.607,3.7
		c3.405,0,6.52-0.909,9.339-2.731c2.819-1.82,5.374-4.199,7.665-7.136c2.29-2.935,4.317-6.255,6.079-9.956s3.229-7.489,4.404-11.365
		c1.174-3.876,2.055-7.604,2.644-11.188c0.587-3.582,0.881-6.784,0.881-9.603c-5.171-0.821-10.132-0.322-14.89,1.498
		c-4.757,1.823-8.986,4.581-12.686,8.281c-3.701,3.701-6.668,8.224-8.898,13.568C99.498,40.385,98.383,46.111,98.383,52.218z"/>
	<path fill="#FFFFFF" stroke="#FFFFFF" stroke-width="4" stroke-miterlimit="10" d="M192.299,2.529c2.466,0,5.049,0.352,7.752,1.057
		c2.701,0.705,5.198,1.792,7.489,3.26c2.29,1.47,4.198,3.348,5.727,5.638c1.525,2.291,2.29,5.083,2.29,8.37
		c-0.118,3.761-0.969,6.902-2.555,9.427c-1.586,2.527-3.612,4.554-6.079,6.079c-2.467,1.528-5.229,2.643-8.281,3.348
		c-3.056,0.705-6.14,1.057-9.251,1.057c-3.113,0-6.051-0.292-8.811-0.881c-2.761-0.586-5.082-1.41-6.959-2.467
		c-0.119,3.29,0.203,6.462,0.969,9.515c0.763,3.056,1.996,5.727,3.7,8.017c1.702,2.291,3.876,4.113,6.52,5.462
		c2.644,1.352,5.727,2.026,9.251,2.026c1.525,0,3.287-0.292,5.286-0.881c1.996-0.586,4.021-1.292,6.078-2.115
		c2.055-0.82,4.022-1.731,5.903-2.731c1.878-0.997,3.464-1.908,4.758-2.731c0.586,1.88,0.616,3.672,0.088,5.374
		c-0.529,1.704-1.352,3.232-2.467,4.581c-1.118,1.352-2.467,2.555-4.053,3.612s-3.084,1.88-4.493,2.467
		c-2.233,0.941-4.466,1.646-6.696,2.114c-2.232,0.471-4.229,0.705-5.99,0.705c-2.938,0-6.14-0.556-9.604-1.674
		c-3.466-1.115-6.695-3.111-9.691-5.991c-2.995-2.877-5.492-6.753-7.488-11.629c-1.998-4.873-2.938-11.128-2.818-18.765
		c0.938-9.983,3.787-17.854,8.545-23.611C176.176,5.409,183.136,2.529,192.299,2.529z M174.502,27.902
		c2.23,0.823,4.934,1.47,8.105,1.938c3.172,0.471,6.313,0.559,9.426,0.265c3.111-0.292,5.903-1.146,8.37-2.555
		s4.053-3.64,4.758-6.696c0-1.644-0.44-3.023-1.321-4.141c-0.882-1.115-1.999-1.996-3.349-2.643c-1.352-0.644-2.85-1.115-4.493-1.41
		c-1.646-0.292-3.172-0.44-4.581-0.44c-4.113,0-7.638,1.586-10.571,4.757C177.907,20.149,175.793,23.792,174.502,27.902z"/>
	<path fill="#FFFFFF" stroke="#FFFFFF" stroke-width="4" stroke-miterlimit="10" d="M225.248,45.522
		c-0.236-5.873,0.529-11.277,2.291-16.21s4.257-9.25,7.488-12.951c3.229-3.7,7.164-6.753,11.806-9.162
		c4.64-2.406,9.779-3.965,15.418-4.669c1.996-0.234,3.847-0.146,5.551,0.264c1.701,0.413,3.141,1.057,4.316,1.938
		c1.173,0.881,1.996,1.938,2.467,3.172c0.468,1.233,0.468,2.616,0,4.141c-5.286-0.352-10.308,0.119-15.065,1.41
		c-4.757,1.294-8.928,3.378-12.51,6.255c-3.585,2.88-6.344,6.52-8.282,10.924c-1.938,4.405-2.615,9.603-2.025,15.594
		c0.352,4.465,1.674,7.989,3.964,10.572c2.291,2.585,5.168,4.378,8.634,5.375c3.464,0.999,7.282,1.321,11.453,0.969
		c4.169-0.352,8.37-1.291,12.599-2.819c0.705,1.646,0.732,3.232,0.088,4.757c-0.646,1.528-1.646,2.88-2.995,4.053
		c-1.352,1.175-2.968,2.114-4.846,2.819c-1.88,0.705-3.7,1.057-5.462,1.057c-3.524,0-7.285-0.325-11.277-0.969
		c-3.994-0.644-7.726-1.966-11.188-3.964c-3.467-1.996-6.344-4.785-8.634-8.37C226.746,56.125,225.482,51.397,225.248,45.522z"/>
	<path fill="#FFFFFF" stroke="#FFFFFF" stroke-miterlimit="10" d="M316.379,107.082c0,3.313-3.396,6-7.584,6
		c-1.937,0.042-7.422-1.396-7.422-6.178c0.264-2.316,0.955-3.852,2.328-4.938c1.372-1.086,3-0.885,5.094-0.885
		C312.983,101.082,316.379,103.768,316.379,107.082z"/>
	<g>
		<path fill="#FFFFFF" d="M188.487,154.57c0,4.699-3.7,8.512-8.251,8.512h-10.99V135.33h10.99c3.737,0,6.734,3.182,6.734,7.029
			c0,1.998-0.814,3.85-2.109,5.145C187.044,149.021,188.487,151.611,188.487,154.57z M173.354,146.061h6.883c0.036,0,0.073,0,0.11,0
			c1.406-0.111,2.517-1.775,2.517-3.701c0-1.961-1.185-3.625-2.627-3.625h-6.883V146.061z M184.38,154.57
			c0-2.738-1.775-4.994-3.959-5.105c-0.037,0-0.111,0-0.185,0h-6.883v10.213h6.883C182.53,159.678,184.38,157.383,184.38,154.57z"/>
		<path fill="#FFFFFF" d="M221.491,149.205c0,8.066-6.327,14.246-14.098,14.246s-14.098-6.18-14.098-14.246
			s6.327-14.209,14.098-14.209S221.491,141.139,221.491,149.205z M197.403,149.205c0,5.662,4.144,10.842,9.99,10.842
			c5.884,0,9.991-5.18,9.991-10.842c0-5.623-4.145-10.805-9.991-10.805S197.403,143.582,197.403,149.205z"/>
		<path fill="#FFFFFF" d="M241.285,154.275l5.957,8.807h-4.551l-5.439-8.066h-6.476v8.066h-4.107v-8.066v-3.404v-12.877v-3.404
			h4.107h6.66c5.439,0.037,9.806,4.254,9.806,9.842C247.242,149.391,244.801,152.795,241.285,154.275z M230.776,151.611h6.624
			c3.145,0,5.735-2.664,5.735-6.439c0-3.736-2.591-6.438-5.735-6.438h-6.624V151.611z"/>
		<path fill="#FFFFFF" d="M263.966,163.082h-10.805V135.33h10.805c7.364,0.037,13.321,6.254,13.321,13.875
			C277.287,156.865,271.33,163.045,263.966,163.082z M270.404,156.68c1.776-1.998,2.775-4.625,2.775-7.475
			c0-2.813-0.999-5.477-2.775-7.438c-1.739-1.961-4.07-3.033-6.512-3.033h-6.624v20.943h6.624
			C266.334,159.678,268.665,158.641,270.404,156.68z"/>
		<path fill="#FFFFFF" d="M302.742,159.678v3.404h-19.167V135.33h18.465v3.404h-14.357v8.215h11.729v3.441h-11.729v9.287H302.742z"
			/>
		<path fill="#FFFFFF" d="M330.64,163.082h-4.44l-2.774-7.254h-10.916l-2.738,7.254h-4.44l11.396-27.752h2.517L330.64,163.082z
			 M322.129,152.426l-4.144-10.953l-4.182,10.953H322.129z"/>
		<path fill="#FFFFFF" d="M356.613,135.33v16.873c0,4.477-1.775,11.248-11.101,11.248c-9.324,0-11.175-6.771-11.175-11.248V135.33
			h4.107v16.873c0,1.664,0.37,7.844,7.067,7.844c6.698,0,6.994-6.18,6.994-7.844V135.33H356.613z"/>
		<path fill="#FFFFFF" d="M375.039,149.242l9.621,13.84h-4.773l-7.179-10.361l-7.216,10.361h-4.81l9.657-13.84l-9.657-13.912h4.81
			l7.179,10.396l7.253-10.396h4.773L375.039,149.242z"/>
	</g>
</g>
</svg>
