<?xml version="1.0" encoding="UTF-8"?>
<svg width="34px" height="44px" viewBox="0 0 34 44" version="1.1" xmlns="http://www.w3.org/2000/svg" xmlns:xlink="http://www.w3.org/1999/xlink">
    <!-- Generator: Sketch 42 (36781) - http://www.bohemiancoding.com/sketch -->
    <title>calculette</title>
    <desc>Created with Sketch.</desc>
    <defs></defs>
    <g id="Page-1" stroke="none" stroke-width="1" fill="none" fill-rule="evenodd">
        <g id="Artboard-Copy-22" transform="translate(-885.000000, -1287.000000)" fill-rule="nonzero" fill="#FFFFFF">
            <g id="Valeur" transform="translate(0.000000, 750.000000)">
                <g id="Group" transform="translate(690.000000, 449.000000)">
                    <g id="Group-8" transform="translate(162.000000, 60.000000)">
                        <g id="calculette" transform="translate(33.000000, 28.000000)">
                            <path d="M31.7247568,0 L2.27708108,0 C1.19275676,0 0.31427027,0.879405405 0.31427027,1.96372973 L0.31427027,41.2263784 C0.31427027,42.3107027 1.19367568,43.1901081 2.27708108,43.1901081 L31.7247568,43.1901081 C32.8090811,43.1901081 33.6875676,42.3107027 33.6875676,41.2263784 L33.6875676,1.96372973 C33.6875676,0.879405405 32.8090811,0 31.7247568,0 Z M29.761027,3.92562162 L29.761027,9.81497297 L4.23989189,9.81497297 L4.23989189,3.92562162 L29.761027,3.92562162 Z M4.23989189,39.2644865 L4.23989189,13.7415135 L29.761027,13.7415135 L29.761027,39.2617297 L4.23989189,39.2617297 L4.23989189,39.2644865 Z" id="Shape"></path>
                            <path d="M11.2595135,15.4782703 L7.18410811,15.4782703 C6.64194595,15.4782703 6.2027027,15.9184324 6.2027027,16.4596757 L6.2027027,20.5378378 C6.2027027,21.08 6.64286486,21.5192432 7.18410811,21.5192432 L11.2595135,21.5192432 C11.8016757,21.5192432 12.2409189,21.0790811 12.2409189,20.5378378 L12.2409189,16.4596757 C12.2418378,15.9165946 11.8035135,15.4782703 11.2595135,15.4782703 Z" id="Shape"></path>
                            <path d="M19.0372432,15.4782703 L14.9627568,15.4782703 C14.4205946,15.4782703 13.9813514,15.9184324 13.9813514,16.4596757 L13.9813514,20.5378378 C13.9813514,21.08 14.4205946,21.5192432 14.9627568,21.5192432 L19.0372432,21.5192432 C19.5794054,21.5192432 20.0186486,21.0790811 20.0186486,20.5378378 L20.0186486,16.4596757 C20.0195676,15.9165946 19.5794054,15.4782703 19.0372432,15.4782703 Z" id="Shape"></path>
                            <path d="M26.8158919,15.4782703 L22.7404865,15.4782703 C22.1983243,15.4782703 21.76,15.9184324 21.76,16.4596757 L21.76,20.5378378 C21.76,21.08 22.1992432,21.5192432 22.7404865,21.5192432 L26.8158919,21.5192432 C27.3580541,21.5192432 27.7972973,21.0790811 27.7972973,20.5378378 L27.7972973,16.4596757 C27.7972973,15.9165946 27.3580541,15.4782703 26.8158919,15.4782703 Z" id="Shape"></path>
                            <path d="M11.2595135,23.482973 L7.18410811,23.482973 C6.64194595,23.482973 6.2027027,23.9222162 6.2027027,24.4634595 L6.2027027,28.5416216 C6.2027027,29.0837838 6.64286486,29.5221081 7.18410811,29.5221081 L11.2595135,29.5221081 C11.8016757,29.5221081 12.2409189,29.0828649 12.2409189,28.5416216 L12.2409189,24.4634595 C12.2418378,23.9203784 11.8035135,23.482973 11.2595135,23.482973 Z" id="Shape"></path>
                            <path d="M19.0372432,23.482973 L14.9627568,23.482973 C14.4205946,23.482973 13.9813514,23.9222162 13.9813514,24.4634595 L13.9813514,28.5416216 C13.9813514,29.0837838 14.4205946,29.5221081 14.9627568,29.5221081 L19.0372432,29.5221081 C19.5794054,29.5221081 20.0186486,29.0828649 20.0186486,28.5416216 L20.0186486,24.4634595 C20.0195676,23.9203784 19.5794054,23.482973 19.0372432,23.482973 Z" id="Shape"></path>
                            <path d="M11.2595135,31.4876757 L7.18410811,31.4876757 C6.64194595,31.4876757 6.2027027,31.9269189 6.2027027,32.4672432 L6.2027027,36.5454054 C6.2027027,37.0894054 6.64286486,37.5268108 7.18410811,37.5268108 L11.2595135,37.5268108 C11.8016757,37.5268108 12.2409189,37.0866486 12.2409189,36.5454054 L12.2409189,32.4672432 C12.2418378,31.9250811 11.8035135,31.4876757 11.2595135,31.4876757 Z" id="Shape"></path>
                            <path d="M19.0372432,31.4876757 L14.9627568,31.4876757 C14.4205946,31.4876757 13.9813514,31.9269189 13.9813514,32.4672432 L13.9813514,36.5454054 C13.9813514,37.0894054 14.4205946,37.5268108 14.9627568,37.5268108 L19.0372432,37.5268108 C19.5794054,37.5268108 20.0186486,37.0866486 20.0186486,36.5454054 L20.0186486,32.4672432 C20.0195676,31.9250811 19.5794054,31.4876757 19.0372432,31.4876757 Z" id="Shape"></path>
                            <path d="M26.8158919,23.482973 L22.7404865,23.482973 C22.1983243,23.482973 21.76,23.9222162 21.76,24.4634595 L21.76,36.5454054 C21.76,37.0894054 22.1992432,37.5268108 22.7404865,37.5268108 L26.8158919,37.5268108 C27.3580541,37.5268108 27.7972973,37.0866486 27.7972973,36.5454054 L27.7972973,24.4634595 C27.7972973,23.9203784 27.3580541,23.482973 26.8158919,23.482973 Z" id="Shape"></path>
                        </g>
                    </g>
                </g>
            </g>
        </g>
    </g>
</svg>