<?xml version="1.0" encoding="UTF-8"?>
<svg width="48px" height="50px" viewBox="0 0 48 50" version="1.1" xmlns="http://www.w3.org/2000/svg" xmlns:xlink="http://www.w3.org/1999/xlink">
    <!-- Generator: Sketch 42 (36781) - http://www.bohemiancoding.com/sketch -->
    <title>lumiere</title>
    <desc>Created with Sketch.</desc>
    <defs></defs>
    <g id="Page-1" stroke="none" stroke-width="1" fill="none" fill-rule="evenodd">
        <g id="Artboard-Copy-22" transform="translate(-879.000000, -1586.000000)" fill-rule="nonzero">
            <g id="Valeur" transform="translate(0.000000, 750.000000)">
                <g id="Group" transform="translate(690.000000, 751.000000)">
                    <g id="Group-7" transform="translate(163.000000, 60.000000)">
                        <g id="lumiere" transform="translate(26.000000, 25.000000)">
                            <path d="M24.0566038,8.49056604 C15.7198113,8.49056604 8.96226415,15.2490566 8.96226415,23.5849057 C8.96226415,30.2726415 13.3160377,35.9349057 19.3396226,37.9169811 L19.3396226,47.1698113 L21.2264151,47.1698113 L21.2264151,50 L26.8867925,50 L26.8867925,47.1698113 L28.7735849,47.1698113 L28.7735849,37.9169811 C34.7971698,35.9349057 39.1509434,30.2726415 39.1509434,23.5849057 C39.1509434,15.2490566 32.3933962,8.49056604 24.0566038,8.49056604 Z" id="Shape" fill="#FFFFFF"></path>
                            <g id="Group" fill="#FFFFFF">
                                <path d="M24.0566038,0 C23.5349057,0 23.1132075,0.421698113 23.1132075,0.943396226 L23.1132075,4.71698113 C23.1132075,5.23867925 23.5349057,5.66037736 24.0566038,5.66037736 C24.5783019,5.66037736 25,5.23867925 25,4.71698113 L25,0.943396226 C25,0.421698113 24.5783019,0 24.0566038,0 Z" id="Shape"></path>
                                <path d="M46.6981132,22.6415094 L42.9245283,22.6415094 C42.4028302,22.6415094 41.9811321,23.0632075 41.9811321,23.5849057 C41.9811321,24.1066038 42.4028302,24.5283019 42.9245283,24.5283019 L46.6981132,24.5283019 C47.2198113,24.5283019 47.6415094,24.1066038 47.6415094,23.5849057 C47.6415094,23.0632075 47.2198113,22.6415094 46.6981132,22.6415094 Z" id="Shape"></path>
                                <path d="M5.18867925,22.6415094 L1.41509434,22.6415094 C0.893396226,22.6415094 0.471698113,23.0632075 0.471698113,23.5849057 C0.471698113,24.1066038 0.893396226,24.5283019 1.41509434,24.5283019 L5.18867925,24.5283019 C5.71037736,24.5283019 6.13207547,24.1066038 6.13207547,23.5849057 C6.13207547,23.0632075 5.71037736,22.6415094 5.18867925,22.6415094 Z" id="Shape"></path>
                                <path d="M39.4,6.90754717 L36.7320755,9.5754717 C36.3632075,9.94433962 36.3632075,10.540566 36.7320755,10.909434 C36.9160377,11.0933962 37.1575472,11.1858491 37.3990566,11.1858491 C37.640566,11.1858491 37.8820755,11.0933962 38.0660377,10.909434 L40.7339623,8.24150943 C41.1028302,7.87264151 41.1028302,7.27641509 40.7339623,6.90754717 C40.3650943,6.53867925 39.7679245,6.53962264 39.4,6.90754717 Z" id="Shape"></path>
                                <path d="M10.0471698,36.2603774 L7.37924528,38.9283019 C7.01037736,39.2971698 7.01037736,39.8933962 7.37924528,40.2622642 C7.56320755,40.4462264 7.80471698,40.5386792 8.04622642,40.5386792 C8.28773585,40.5386792 8.52924528,40.4462264 8.71320755,40.2622642 L11.3811321,37.5943396 C11.75,37.2254717 11.75,36.6292453 11.3811321,36.2603774 C11.0122642,35.8915094 10.4160377,35.8915094 10.0471698,36.2603774 Z" id="Shape"></path>
                                <path d="M38.0660377,36.2603774 C37.6971698,35.8915094 37.1009434,35.8915094 36.7320755,36.2603774 C36.3632075,36.6292453 36.3632075,37.2254717 36.7320755,37.5943396 L39.4,40.2622642 C39.5839623,40.4462264 39.8254717,40.5386792 40.0669811,40.5386792 C40.3084906,40.5386792 40.55,40.4462264 40.7339623,40.2622642 C41.1028302,39.8933962 41.1028302,39.2971698 40.7339623,38.9283019 L38.0660377,36.2603774 Z" id="Shape"></path>
                                <path d="M8.71320755,6.90754717 C8.34433962,6.53867925 7.74811321,6.53867925 7.37924528,6.90754717 C7.01037736,7.27641509 7.01037736,7.87264151 7.37924528,8.24150943 L10.0471698,10.909434 C10.2311321,11.0933962 10.4726415,11.1858491 10.7141509,11.1858491 C10.9556604,11.1858491 11.1971698,11.0933962 11.3811321,10.909434 C11.75,10.540566 11.75,9.94433962 11.3811321,9.5754717 L8.71320755,6.90754717 Z" id="Shape"></path>
                            </g>
                            <path d="M13.6792453,24.5283019 C13.1575472,24.5283019 12.7358491,24.1066038 12.7358491,23.5849057 C12.7358491,17.3424528 17.8141509,12.2641509 24.0566038,12.2641509 C24.5783019,12.2641509 25,12.6858491 25,13.2075472 C25,13.7292453 24.5783019,14.1509434 24.0566038,14.1509434 C18.854717,14.1509434 14.6226415,18.3830189 14.6226415,23.5849057 C14.6226415,24.1066038 14.2009434,24.5283019 13.6792453,24.5283019 Z" id="Shape" fill="#FFFFFF"></path>
                            <polygon id="Shape" fill="#ABABAB" points="19.3396226 40.5660377 19.3396226 47.1698113 21.2264151 47.1698113 21.2264151 50 26.8867925 50 26.8867925 47.1698113 28.7735849 47.1698113 28.7735849 40.5660377"></polygon>
                        </g>
                    </g>
                </g>
            </g>
        </g>
    </g>
</svg>